<svg xmlns="http://www.w3.org/2000/svg" width="105px" height="20px" viewBox="0 0 105 20" version="1.1"><path d="M52.9506,3.0014 L50.1156,3.0014 C49.9106,3.0014 49.7316,3.1174 49.6356,3.2894 C49.6106,3.3334 49.5916,3.3824 49.5796,3.4324 L48.0276,11.4714 L46.4496,3.4314 C46.4366,3.3804 46.4176,3.3314 46.3926,3.2874 C46.3026,3.1244 46.1376,3.0114 45.9456,2.9994 C45.9346,2.9984 43.0506,3.0024 43.0506,3.0024 C42.7446,3.0024 42.4996,3.2594 42.4986,3.5774 L42.4986,14.4184 C42.4986,14.7364 42.7436,14.9954 43.0496,14.9954 L43.9406,14.9954 C44.2466,14.9954 44.4946,14.7364 44.4946,14.4184 C44.4946,14.4184 44.4916,5.5414 44.4916,5.3164 L46.7446,14.5614 C46.7576,14.6134 46.7766,14.6614 46.8016,14.7064 C46.8966,14.8784 47.0756,14.9954 47.2816,14.9954 L48.7046,14.9954 C48.9096,14.9954 49.0886,14.8784 49.1846,14.7064 C49.2096,14.6614 49.2286,14.6124 49.2416,14.5614 L49.2726,14.4184 L51.4766,5.3164 C51.4766,5.5414 51.4786,14.4184 51.4786,14.4184 C51.4786,14.7364 51.7226,14.9954 52.0286,14.9954 L52.9506,14.9954 C53.2566,14.9954 53.5046,14.7364 53.5046,14.4184 L53.5066,3.5784 C53.5066,3.2594 53.2566,3.0014 52.9506,3.0014 L52.9506,3.0014 Z M56.5016,6.0034 L55.4956,6.0034 C55.2186,6.0034 54.9936,6.2614 54.9936,6.5804 L54.9936,14.4184 C54.9936,14.7364 55.2186,14.9954 55.4956,14.9954 L56.5016,14.9954 C56.7786,14.9954 57.0046,14.7364 57.0046,14.4184 L57.0046,6.5804 C57.0046,6.2614 56.7786,6.0034 56.5016,6.0034 L56.5016,6.0034 Z M65.9186,14.1304 L63.5356,10.5034 L65.8036,6.8704 L65.8046,6.8694 C65.8516,6.7854 65.8786,6.6864 65.8786,6.5814 C65.8786,6.2634 65.6286,6.0044 65.3206,6.0044 L64.0756,6.0044 C63.8696,6.0044 63.6896,6.1204 63.5936,6.2914 L62.3076,8.6744 L60.9936,6.2904 L60.9936,6.2914 C60.8966,6.1194 60.7166,6.0044 60.5106,6.0044 L59.1776,6.0044 C58.8696,6.0044 58.6196,6.2624 58.6196,6.5814 C58.6196,6.6864 58.6466,6.7844 58.6936,6.8694 L58.6936,6.8694 L60.9556,10.5034 L58.5766,14.1294 L58.5766,14.1304 C58.5296,14.2154 58.5026,14.3124 58.5026,14.4174 C58.5026,14.7364 58.7516,14.9954 59.0596,14.9954 L60.3646,14.9954 C60.5696,14.9954 60.7496,14.8794 60.8456,14.7084 L60.8456,14.7064 L62.2176,12.2274 L63.5756,14.7084 C63.6726,14.8794 63.8526,14.9954 64.0576,14.9954 L65.4346,14.9954 C65.7426,14.9954 65.9926,14.7364 65.9926,14.4174 C65.9926,14.3124 65.9656,14.2154 65.9186,14.1304 L65.9186,14.1304 Z M56.5016,2.9994 L55.4956,2.9994 C55.2186,2.9994 54.9936,3.2444 54.9936,3.5484 L54.9936,4.4494 C54.9936,4.7524 55.2186,4.9974 55.4956,4.9974 L56.5016,4.9974 C56.7786,4.9974 57.0046,4.7524 57.0046,4.4494 L57.0046,3.5484 C57.0046,3.2444 56.7786,2.9994 56.5016,2.9994 L56.5016,2.9994 Z M94.4476,6.0054 L93.5636,6.0054 C93.2586,6.0054 93.0126,6.2594 93.0126,6.5734 L93.0126,10.9014 C93.0126,11.4524 92.9416,11.8954 92.7996,12.2314 C92.5266,12.8504 91.8016,13.1594 91.0626,13.1594 C90.4856,13.1594 89.8496,12.9424 89.6516,12.5064 C89.5406,12.2594 89.4846,11.8924 89.4846,11.4054 L89.4846,6.5734 C89.4846,6.2594 89.2376,6.0054 88.9336,6.0054 L88.0576,6.0054 C87.7536,6.0054 87.5066,6.2594 87.5066,6.5734 L87.5066,11.4054 C87.5066,12.3854 87.6266,13.1274 87.8646,13.6324 C88.2906,14.5444 89.1176,15.0004 90.3446,15.0004 C90.7706,15.0004 91.1416,14.9424 91.4586,14.8284 C91.7756,14.7124 92.1046,14.4974 92.4446,14.1824 C92.5556,14.0824 92.6526,13.9674 92.7336,13.8364 C92.8136,13.7054 92.8646,13.6264 92.8846,13.6004 L92.8846,14.4164 C92.8846,14.7304 93.1316,14.9844 93.4356,14.9844 L94.4476,14.9844 C94.7516,14.9844 94.9976,14.7304 94.9976,14.4164 L94.9976,6.5734 C94.9976,6.2594 94.7516,6.0054 94.4476,6.0054 L94.4476,6.0054 Z M71.8526,9.1964 C71.9466,9.3644 72.1226,9.4784 72.3246,9.4784 L73.4616,9.4784 C73.7636,9.4784 74.0066,9.2264 74.0066,8.9144 C74.0066,8.8664 74.0006,8.6004 73.9896,8.5554 L73.9896,8.5554 C73.8056,7.7134 73.4526,7.1034 72.9316,6.7234 C72.2736,6.2454 71.4286,6.0064 70.3956,6.0064 C69.1806,6.0064 68.2286,6.4114 67.5376,7.2234 C66.8476,8.0344 66.5026,9.1694 66.5026,10.6274 C66.5026,11.9204 66.8156,12.9724 67.4396,13.7834 C68.0646,14.5954 69.0396,15.0004 70.3646,15.0004 C71.6906,15.0004 72.6906,14.5144 73.3656,13.5414 C73.6316,13.1634 73.8236,12.6454 73.9426,12.2384 C73.9526,12.2024 73.9626,12.1684 73.9716,12.1324 L73.9646,12.1314 C73.9676,12.1084 73.9696,12.0854 73.9696,12.0614 C73.9696,12.0124 73.9636,11.9644 73.9526,11.9184 C73.9396,11.8694 73.9216,11.8224 73.8966,11.7784 C73.8026,11.6104 73.6266,11.4974 73.4246,11.4974 L72.3336,11.4974 C72.0786,11.4974 71.8646,11.6774 71.8046,11.9204 C71.7376,12.1804 71.6336,12.5284 71.4926,12.7144 C71.2806,12.9954 70.9226,13.0734 70.4176,13.0734 C69.7066,13.0734 69.0036,12.7824 68.7466,12.0754 C68.6046,11.6964 68.4716,11.1954 68.4716,10.5734 C68.4716,9.9194 68.6046,9.3964 68.7466,9.0014 C69.0126,8.2584 69.7296,7.9484 70.4556,7.9484 C70.9656,7.9484 71.3416,8.0574 71.5836,8.4014 C71.6726,8.5374 71.7436,8.9014 71.7966,9.0554 L71.7966,9.0564 C71.8096,9.1054 71.8286,9.1524 71.8526,9.1964 L71.8526,9.1964 Z M76.3786,2.9994 L75.6296,2.9994 C75.2856,2.9994 75.0066,3.2574 75.0066,3.5764 L75.0066,14.4184 C75.0066,14.7364 75.2856,14.9954 75.6296,14.9954 L76.3786,14.9954 C76.7226,14.9954 77.0016,14.7364 77.0016,14.4184 L77.0016,3.5764 C77.0016,3.2574 76.7226,2.9994 76.3786,2.9994 L76.3786,2.9994 Z M102.4956,12.3834 C102.1586,12.8574 101.4176,13.0944 100.7716,13.0944 C100.1266,13.0944 99.6446,12.8564 99.3266,12.3794 C99.0086,11.9024 98.5376,11.2654 98.5376,10.4704 C98.5376,9.7324 98.8816,9.1764 99.1936,8.6794 C99.5066,8.1804 100.1206,7.9624 100.7876,7.9624 C101.2256,7.9624 101.8596,8.0064 102.1916,8.2804 C102.7296,8.7344 103.0006,9.4874 103.0006,10.5414 C103.0006,11.2954 102.8316,11.9084 102.4956,12.3834 L102.4956,12.3834 Z M104.4216,2.9994 L103.5766,2.9994 C103.2576,2.9994 102.9976,3.2544 102.9976,3.5704 L102.9976,7.1974 C102.7426,6.7914 102.0966,6.4734 101.6846,6.2444 C101.2736,6.0154 100.8046,5.9944 100.2756,5.9944 C99.1276,5.9944 98.0856,6.3844 97.4006,7.2284 C96.7146,8.0714 96.4966,9.1654 96.4966,10.6364 C96.4966,11.9114 96.8456,12.9564 97.5416,13.7704 C98.2376,14.5854 99.0966,14.9924 100.1156,14.9924 C100.7346,14.9924 101.5026,14.8764 101.9186,14.6444 C102.3356,14.4124 102.7056,14.0414 103.0316,13.5294 L103.0316,14.4244 C103.0316,14.7394 103.2906,14.9944 103.6096,14.9944 L104.4216,14.9944 C104.7406,14.9944 104.9996,14.7394 104.9996,14.4244 L104.9996,3.5704 C104.9996,3.2544 104.7406,2.9994 104.4216,2.9994 L104.4216,2.9994 Z M83.7076,12.4604 C83.3676,12.9194 82.8786,13.1484 82.2426,13.1484 C81.6066,13.1484 81.1176,12.9194 80.7746,12.4604 C80.4306,12.0014 80.2586,11.3484 80.2586,10.5034 C80.2586,9.6574 80.4306,9.0064 80.7746,8.5494 C81.1176,8.0934 81.6066,7.8654 82.2426,7.8654 C82.8786,7.8654 83.3676,8.0934 83.7076,8.5494 C84.0486,9.0064 84.2196,9.6574 84.2196,10.5034 C84.2196,11.3484 84.0486,12.0014 83.7076,12.4604 L83.7076,12.4604 Z M82.2506,5.9974 C80.8206,5.9974 79.7546,6.4444 79.0536,7.3374 C78.3516,8.2304 77.9996,9.2854 77.9996,10.5034 C77.9996,11.7414 78.3516,12.8004 79.0536,13.6804 C79.7546,14.5604 80.8206,15.0004 82.2506,15.0004 C83.6806,15.0004 84.7466,14.5604 85.4486,13.6804 C86.1506,12.8004 86.5016,11.7414 86.5016,10.5034 C86.5016,9.2854 86.1506,8.2304 85.4486,7.3374 C84.7466,6.4444 83.6806,5.9974 82.2506,5.9974 L82.2506,5.9974 Z M21.2136,15.0104 L6.6766,15.0104 C4.7196,15.0104 3.1276,13.3694 3.1276,11.4034 C3.1276,9.4364 4.7196,7.8354 6.6766,7.8354 C7.6266,7.8354 8.5186,8.4984 9.1866,9.1724 C9.6026,9.5914 10.2756,9.5914 10.6916,9.1724 C11.1066,8.7534 11.1066,8.0754 10.6916,7.6564 C9.9596,6.9184 9.0596,6.1224 8.0796,5.8724 C9.0896,3.6354 11.3296,1.9774 13.8326,1.9774 C17.3156,1.9774 20.1496,4.9954 20.1496,8.4994 C20.1496,9.1814 19.7516,10.0174 19.5416,10.6554 C19.3566,11.2174 19.6586,11.8244 20.2156,12.0104 C20.3276,12.0484 20.4396,12.0654 20.5516,12.0654 C20.9966,12.0654 21.4126,11.7804 21.5606,11.3304 C21.6986,10.9094 22.0946,10.3114 22.1656,9.8734 C23.1446,10.2574 23.9656,11.2124 23.9656,12.3294 C23.9656,13.7854 22.6616,15.0104 21.2136,15.0104 L21.2136,15.0104 Z M22.2356,7.6614 C21.8156,3.3664 18.2076,0.0004 13.8326,0.0004 C10.2076,0.0004 6.9976,2.3444 5.8426,5.7594 C3.1076,6.1674 0.9996,8.5394 0.9996,11.4034 C0.9996,14.5514 3.5466,16.9884 6.6766,16.9884 L21.2136,16.9884 C23.8346,16.9884 25.9676,14.9674 25.9676,12.3294 C25.9676,10.0454 24.3666,8.1334 22.2356,7.6614 L22.2356,7.6614 Z M28.0926,7.8714 C27.7646,7.3814 27.1026,7.2514 26.6166,7.5844 C26.1296,7.9154 26.0016,8.5824 26.3316,9.0724 C26.9796,10.0384 27.4886,11.1644 27.4886,12.3294 C27.4886,13.4964 26.9796,14.6224 26.3316,15.5854 C26.0016,16.0754 26.1296,16.7424 26.6156,17.0744 C26.7986,17.1994 27.0056,17.2594 27.2116,17.2594 C27.5526,17.2594 27.8866,17.0944 28.0926,16.7884 C28.9806,15.4684 29.4496,13.9264 29.4496,12.3294 C29.4496,10.7344 28.9806,9.1924 28.0926,7.8714 L28.0926,7.8714 Z M29.6626,5.8414 C29.1746,6.1714 29.0446,6.8374 29.3716,7.3284 C30.3536,8.8054 30.9976,10.5344 30.9976,12.3294 C30.9976,14.1244 30.3536,15.8544 29.3716,17.3304 C29.0446,17.8224 29.1746,18.4884 29.6626,18.8184 C29.8446,18.9414 30.0506,19.0004 30.2536,19.0004 C30.5966,19.0004 30.9336,18.8334 31.1386,18.5244 C32.3566,16.6934 32.9996,14.5514 32.9996,12.3294 C32.9996,10.1074 32.3566,7.9654 31.1386,6.1344 C30.8106,5.6434 30.1506,5.5114 29.6626,5.8414 L29.6626,5.8414 Z"></path></svg>